<svg xmlns="http://www.w3.org/2000/svg" width="20" height="16" viewBox="0 0 20 16"><g transform="translate(0 0)"><path d="M8.229,16H0V13c0-2.627,5.208-4,8-4a14.506,14.506,0,0,1,3.579.529,2.322,2.322,0,0,0-.507.99,2.3,2.3,0,0,1-.319.711l-.025.027A11.427,11.427,0,0,0,8,10.9c-2.974,0-6.1,1.458-6.1,2.1v1.1H7.968a3.97,3.97,0,0,0,.26,1.9ZM8,8a4,4,0,1,1,4-4A4,4,0,0,1,8,8ZM8,1.9A2.1,2.1,0,1,0,10.1,4,2.1,2.1,0,0,0,8,1.9Z" transform="translate(0 0)" fill="#1967d2"/><path d="M9.231,9.231A2.616,2.616,0,1,0,6.616,6.616,2.615,2.615,0,0,0,9.231,9.231Zm0,1.308C7.485,10.539,4,11.415,4,13.155v1.308H14.462V13.155C14.462,11.415,10.977,10.539,9.231,10.539Z" transform="translate(5.538 1.538)" fill="#1967d2"/></g></svg>